<?xml version="1.0" encoding="iso-8859-1"?>
<!-- Generator: Adobe Illustrator 19.0.0, SVG Export Plug-In . SVG Version: 6.00 Build 0)  -->
<svg version="1.1" id="Capa_1" xmlns="http://www.w3.org/2000/svg" xmlns:xlink="http://www.w3.org/1999/xlink" x="0px" y="0px"
	 viewBox="0 0 464 464" style="enable-background:new 0 0 464 464;" xml:space="preserve">
<path style="fill:#F7E4BA;" d="M72.117,40h64v216h-64V40z"/>
<path style="fill:#F3AF3E;" d="M104.117,256h-32V40l32,48V256z"/>
<path style="fill:#F7BA61;" d="M104.117,88l32-48h-32h-32L104.117,88z"/>
<path style="fill:#F7E4BA;" d="M0.115,141.662l56.714-29.657l100.092,191.411l-56.714,29.657L0.115,141.662z"/>
<path style="fill:#F3AF3E;" d="M128.565,318.24l-28.352,14.824L0.117,141.656l50.6,27.704L128.565,318.24z"/>
<path style="fill:#F7BA61;" d="M50.717,169.36L56.829,112l-28.352,14.832l-28.36,14.824L50.717,169.36z"/>
<path style="fill:#F3AF3E;" d="M365.987,335.638l-57.049-29.007l97.898-192.54l57.049,29.007L365.987,335.638z"/>
<path style="fill:#F7E4BA;" d="M337.429,321.128l28.52,14.504l97.904-192.536l-50.28,28.28L337.429,321.128z"/>
<path style="fill:#F7BA61;" d="M413.573,171.376l-6.776-57.288l28.528,14.504l28.528,14.504L413.573,171.376z"/>
<path style="fill:#F7E4BA;" d="M328.117,72h64v216h-64V72z"/>
<path style="fill:#F3AF3E;" d="M360.117,288h-32V72l32,48V288z"/>
<path style="fill:#F7BA61;" d="M360.117,120l32-48h-64L360.117,120z"/>
<path style="fill:#F7E4BA;" d="M200.117,0h64v288h-64V0z"/>
<path style="fill:#F3AF3E;" d="M232.117,288h-32V0l32,48V288z"/>
<path style="fill:#F7BA61;" d="M232.117,48l32-48h-64L232.117,48z"/>
<path style="fill:#F7E4BA;" d="M264.117,40h64v288h-64V40z"/>
<path style="fill:#F3AF3E;" d="M296.117,328h-32V40l32,48V328z"/>
<path style="fill:#F7BA61;" d="M296.117,88l32-48h-64L296.117,88z"/>
<path style="fill:#F7E4BA;" d="M136.117,104h64v288h-64V104z"/>
<path style="fill:#F3AF3E;" d="M168.117,392h-32V104l32,48V392z"/>
<path style="fill:#F7BA61;" d="M168.117,152l32-48h-64L168.117,152z"/>
<path style="fill:#DC4D41;" d="M352.117,464h-64l-24.248-13.856c-19.675-11.243-43.829-11.243-63.504,0L176.117,464h-64l-64-224h88
	l51.624,34.4c26.872,17.915,61.88,17.915,88.752,0l51.624-34.4h88L352.117,464z"/>
<path style="fill:#FBB540;" d="M91.549,392h281.136l16-56H75.549L91.549,392z"/>
<g>
</g>
<g>
</g>
<g>
</g>
<g>
</g>
<g>
</g>
<g>
</g>
<g>
</g>
<g>
</g>
<g>
</g>
<g>
</g>
<g>
</g>
<g>
</g>
<g>
</g>
<g>
</g>
<g>
</g>
</svg>
