<?xml version="1.0" encoding="iso-8859-1"?>
<!-- Generator: Adobe Illustrator 19.0.0, SVG Export Plug-In . SVG Version: 6.00 Build 0)  -->
<svg version="1.1" id="Capa_1" xmlns="http://www.w3.org/2000/svg" xmlns:xlink="http://www.w3.org/1999/xlink" x="0px" y="0px"
	 viewBox="0 0 472 472" style="enable-background:new 0 0 472 472;" xml:space="preserve">
<path style="fill:#EBEBEB;" d="M88,304h296c46.392,0,84,37.608,84,84l0,0c0,46.392-37.608,84-84,84H88c-46.392,0-84-37.608-84-84
	l0,0C4,341.609,41.608,304,88,304z"/>
<path style="fill:#C7463B;" d="M112,336h248c28.719,0,52,23.281,52,52l0,0c0,28.719-23.281,52-52,52H112c-28.719,0-52-23.281-52-52
	l0,0C60,359.282,83.281,336,112,336z"/>
<path style="fill:#F4CA62;" d="M108,160h256v232H108V160z"/>
<path style="fill:#8F563B;" d="M340,224h24v-72H108v72h32v64c0,13.255,10.745,24,24,24s24-10.745,24-24v-64h32v24
	c0,13.255,10.745,24,24,24s24-10.745,24-24v-24H340z"/>
<g>
	<path style="fill:#DA922A;" d="M324,336h16v16h-16V336z"/>
	<path style="fill:#DA922A;" d="M324,272h16v16h-16V272z"/>
	<path style="fill:#DA922A;" d="M292,304h16v16h-16V304z"/>
	<path style="fill:#DA922A;" d="M260,336h16v16h-16V336z"/>
</g>
<path style="fill:#A66444;" d="M148,112h176c22.091,0,40,17.909,40,40l0,0c0,22.091-17.909,40-40,40H148c-22.091,0-40-17.909-40-40
	l0,0C108,129.909,125.909,112,148,112z"/>
<path style="fill:#5E8569;" d="M236,80c-4.418,0-8-3.582-8-8v-8c0.053-22.65,10.711-43.968,28.8-57.6l6.4-4.8
	c3.535-2.651,8.549-1.935,11.2,1.6s1.935,8.549-1.6,11.2l0,0l-6.4,4.8C252.336,29.807,244.046,46.385,244,64v8
	C244,76.419,240.419,80,236,80z"/>
<circle style="fill:#DC4D41;" cx="236" cy="88" r="40"/>
<g>
</g>
<g>
</g>
<g>
</g>
<g>
</g>
<g>
</g>
<g>
</g>
<g>
</g>
<g>
</g>
<g>
</g>
<g>
</g>
<g>
</g>
<g>
</g>
<g>
</g>
<g>
</g>
<g>
</g>
</svg>
