<svg height="512px" viewBox="-43 0 512 512" width="512px" xmlns="http://www.w3.org/2000/svg"><path d="m213.332031 512c-44.117187 0-80-35.882812-80-80 0-8.832031 7.167969-16 16-16s16 7.167969 16 16c0 26.476562 21.527344 48 48 48 26.476563 0 48-21.523438 48-48 0-8.832031 7.167969-16 16-16s16 7.167969 16 16c0 44.117188-35.882812 80-80 80zm0 0"/><path d="m389.332031 448h-352c-20.585937 0-37.332031-16.746094-37.332031-37.332031 0-10.925781 4.757812-21.269531 13.054688-28.375 32.449218-27.414063 50.945312-67.261719 50.945312-109.480469v-59.480469c0-82.34375 66.988281-149.332031 149.332031-149.332031 82.347657 0 149.335938 66.988281 149.335938 149.332031v59.480469c0 42.21875 18.496093 82.066406 50.730469 109.332031 8.511718 7.253907 13.269531 17.597657 13.269531 28.523438 0 20.585937-16.746094 37.332031-37.335938 37.332031zm-176-352c-64.703125 0-117.332031 52.628906-117.332031 117.332031v59.480469c0 51.644531-22.632812 100.414062-62.078125 133.757812-.75.640626-1.921875 1.964844-1.921875 4.097657 0 2.898437 2.433594 5.332031 5.332031 5.332031h352c2.902344 0 5.335938-2.433594 5.335938-5.332031 0-2.132813-1.175781-3.457031-1.878907-4.054688-39.488281-33.386719-62.121093-82.15625-62.121093-133.800781v-59.480469c0-64.703125-52.628907-117.332031-117.335938-117.332031zm0 0"/><path d="m213.332031 96c-8.832031 0-16-7.167969-16-16v-64c0-8.832031 7.167969-16 16-16s16 7.167969 16 16v64c0 8.832031-7.167969 16-16 16zm0 0"/></svg>