<?xml version="1.0" encoding="iso-8859-1"?>
<!-- Generator: Adobe Illustrator 19.0.0, SVG Export Plug-In . SVG Version: 6.00 Build 0)  -->
<svg version="1.1" id="Capa_1" xmlns="http://www.w3.org/2000/svg" xmlns:xlink="http://www.w3.org/1999/xlink" x="0px" y="0px"
	 viewBox="0 0 464 464" style="enable-background:new 0 0 464 464;" xml:space="preserve">
<circle style="fill:#D9D9D9;" cx="232" cy="232" r="232"/>
<circle style="fill:#F7E4BA;" cx="232" cy="232" r="160"/>
<path style="fill:#6B9777;" d="M63.48,175.88c-0.348,4.21,0.147,8.447,1.456,12.464c-23.964,6.671-37.982,31.505-31.311,55.469
	c3.483,12.513,12.2,22.913,23.911,28.531c-1.992,3.719-3.221,7.799-3.616,12c-1.102,19.027,13.407,35.354,32.432,36.496
	c5.365,0.444,10.763-0.287,15.816-2.144L128.496,249L128,192l-10.976-41.48c-4.649-2.72-9.837-4.391-15.2-4.896
	C82.884,143.403,65.725,156.943,63.48,175.88z"/>
<path style="fill:#EBEBEB;" d="M384,112c0.058-17.616-14.176-31.943-31.791-32c-11.727-0.038-22.529,6.361-28.129,16.664
	c-39.532-20.086-87.861-4.321-107.947,35.211s-4.321,87.861,35.211,107.947s87.861,4.321,107.947-35.211
	c9.906-19.496,11.43-42.189,4.221-62.835C375.841,137.042,383.984,125.207,384,112L384,112z"/>
<circle style="fill:#FBB540;" cx="280" cy="168" r="36"/>
<circle style="fill:#F7BA61;" cx="160" cy="320" r="80"/>
<g>
	<circle style="fill:#DC4D41;" cx="120" cy="215.992" r="32"/>
	<circle style="fill:#DC4D41;" cx="124.88" cy="149.432" r="32"/>
</g>
<g>
	<path style="fill:#8F563B;" d="M398.456,265.264c-4.418,0.002-8.002-3.578-8.004-7.996c0-0.306,0.017-0.612,0.052-0.916
		l4.744-41.264c0.5-4.39,4.464-7.543,8.854-7.043c1.435,0.163,2.798,0.712,3.946,1.587l36.8,28
		c3.516,2.675,4.198,7.695,1.522,11.211c-0.992,1.304-2.362,2.272-3.922,2.773l-41.552,13.28
		C400.108,265.149,399.284,265.274,398.456,265.264L398.456,265.264z"/>
	<path style="fill:#8F563B;" d="M261.296,442.472c-2.686-0.001-5.192-1.351-6.672-3.592l-22.936-34.632
		c-2.44-3.684-1.431-8.648,2.252-11.087c1.199-0.794,2.591-1.251,4.028-1.321l46.184-2.272c4.413-0.215,8.165,3.188,8.38,7.601
		c0.08,1.643-0.349,3.272-1.228,4.663l-23.2,36.904c-1.446,2.296-3.958,3.703-6.672,3.736H261.296z"/>
</g>
<g>
	<path style="fill:#F26B32;" d="M176,280h16v16h-16V280z"/>
	<path style="fill:#F26B32;" d="M200,304h16v16h-16V304z"/>
	<path style="fill:#F26B32;" d="M176,336h16v16h-16V336z"/>
	<path style="fill:#F26B32;" d="M112,336h16v16h-16V336z"/>
	<path style="fill:#F26B32;" d="M128,280h16v16h-16V280z"/>
	<path style="fill:#F26B32;" d="M144,360h16v16h-16V360z"/>
	<path style="fill:#F26B32;" d="M144,312h16v16h-16V312z"/>
</g>
<path style="fill:#8F563B;" d="M299.576,410.216c-8.437,0.013-16.442-3.731-21.84-10.216l-0.056-0.064
	c-10.215-12.192-8.611-30.357,3.581-40.572c0.734-0.615,1.499-1.193,2.291-1.732l18.216-14.872
	c20.336-16.555,36.873-37.29,48.488-60.8l8.224-16.576c6.568-15.062,24.102-21.948,39.164-15.38s21.948,24.102,15.38,39.164l0,0
	l-10.976,23.144c-14.214,29.909-35.61,55.835-62.28,75.464l-24.408,17.896C310.62,408.617,305.156,410.19,299.576,410.216
	L299.576,410.216z"/>
<g>
</g>
<g>
</g>
<g>
</g>
<g>
</g>
<g>
</g>
<g>
</g>
<g>
</g>
<g>
</g>
<g>
</g>
<g>
</g>
<g>
</g>
<g>
</g>
<g>
</g>
<g>
</g>
<g>
</g>
</svg>
